<?xml version="1.0" encoding="UTF-8"?>
<svg id="Camada_2" data-name="Camada 2" xmlns="http://www.w3.org/2000/svg" viewBox="0 0 33.32 33.32">
  <defs>
    <style>
      .cls-1 {
        fill: #20a5f3;
      }

      .cls-2 {
        fill: #fff;
        fill-rule: evenodd;
      }
    </style>
  </defs>
  <g id="Camada_1-2" data-name="Camada 1">
    <g>
      <rect class="cls-1" width="33.32" height="33.32"/>
      <path class="cls-2" d="M8.04,15.65c4.77-2.07,7.94-3.45,9.53-4.11,4.54-1.89,5.49-2.22,6.1-2.23.14,0,.44.03.64.19.16.14.2.31.23.45s.05.42.03.64c-.25,2.59-1.31,8.87-1.85,11.75-.23,1.23-.68,1.63-1.12,1.68-.95.08-1.68-.63-2.59-1.23-1.44-.94-2.25-1.53-3.65-2.45-1.62-1.06-.57-1.65.35-2.6.25-.25,4.43-4.06,4.51-4.4.01-.04.01-.2-.08-.29-.1-.08-.23-.05-.34-.03-.15.03-2.44,1.55-6.89,4.56-.65.45-1.24.67-1.77.65-.59-.01-1.7-.33-2.55-.6-1.02-.33-1.84-.5-1.77-1.08.04-.3.45-.6,1.21-.91Z"/>
    </g>
  </g>
</svg>