<?xml version="1.0" encoding="UTF-8"?>
<svg id="Camada_2" data-name="Camada 2" xmlns="http://www.w3.org/2000/svg" viewBox="0 0 33.32 33.32">
  <defs>
    <style>
      .cls-1 {
        fill: #20a5f3;
      }

      .cls-2 {
        fill: #fff;
      }
    </style>
  </defs>
  <g id="Camada_1-2" data-name="Camada 1">
    <g>
      <rect class="cls-1" width="33.32" height="33.32"/>
      <g>
        <rect class="cls-2" x="8.33" y="13.62" width="3.78" height="11.99" rx=".6" ry=".6"/>
        <circle class="cls-2" cx="10.22" cy="10.16" r="2.44"/>
        <path class="cls-2" d="M25.55,25.05c0,.31-.25.56-.56.56h-2.76c-.31,0-.56-.25-.56-.56v-5.06c0-.75.22-3.31-1.97-3.31-1.7,0-2.05,1.75-2.12,2.53v5.83c0,.31-.25.56-.56.56h-2.67c-.31,0-.56-.25-.56-.56v-10.88c0-.31.25-.56.56-.56h2.67c.31,0,.56.25.56.56v.94c.63-.95,1.57-1.68,3.56-1.68,4.42,0,4.39,4.13,4.39,6.4v5.22h0Z"/>
      </g>
    </g>
  </g>
</svg>