<?xml version="1.0" encoding="UTF-8"?>
<svg id="Camada_2" data-name="Camada 2" xmlns="http://www.w3.org/2000/svg" viewBox="0 0 33.32 33.32">
  <defs>
    <style>
      .cls-1 {
        fill: #20a5f3;
      }

      .cls-2 {
        fill: #fff;
      }
    </style>
  </defs>
  <g id="Camada_1-2" data-name="Camada 1">
    <g>
      <rect class="cls-1" width="33.32" height="33.32"/>
      <g>
        <path class="cls-2" d="M6.14,27.26l1.53-5.6c-.86-1.53-1.31-3.25-1.31-5,0-5.68,4.62-10.29,10.29-10.29s10.29,4.62,10.29,10.29-4.62,10.29-10.29,10.29c-1.67,0-3.33-.41-4.81-1.2l-5.71,1.5ZM12.05,24.17l.26.15c1.33.75,2.83,1.15,4.34,1.15,4.86,0,8.81-3.95,8.81-8.81s-3.95-8.81-8.81-8.81-8.81,3.95-8.81,8.81c0,1.58.43,3.14,1.26,4.52l.16.27-1.02,3.72,3.81-1Z"/>
        <path class="cls-2" d="M13.22,11.98c.16,0,.33,0,.48,0,.18,0,.37.02.56.43.22.49.7,1.72.77,1.84s.11.27.02.43c-.08.17-.12.27-.24.42-.12.14-.26.32-.37.43-.12.12-.25.26-.11.51s.64,1.06,1.38,1.72c.95.85,1.75,1.11,2,1.23.25.12.39.11.54-.06.15-.16.62-.72.79-.97.16-.25.33-.21.56-.12.23.08,1.45.68,1.7.81s.41.19.48.29c.06.1.06.6-.14,1.18-.21.58-1.22,1.14-1.68,1.18-.46.04-.89.21-2.98-.62-2.53-1-4.12-3.59-4.25-3.75-.12-.16-1.01-1.35-1.01-2.57s.64-1.82.87-2.07c.23-.25.5-.31.66-.31Z"/>
      </g>
    </g>
  </g>
</svg>