<?xml version="1.0" encoding="UTF-8"?>
<svg id="Camada_2" data-name="Camada 2" xmlns="http://www.w3.org/2000/svg" viewBox="0 0 33.32 33.32">
  <defs>
    <style>
      .cls-1 {
        fill: #20a5f3;
      }

      .cls-2 {
        fill: #fff;
      }
    </style>
  </defs>
  <g id="Camada_1-2" data-name="Camada 1">
    <g>
      <rect class="cls-1" width="33.32" height="33.32"/>
      <g>
        <path class="cls-2" d="M5.97,9.93v13.47h21.39v-13.47H5.97ZM16.66,17.93l-9.19-7.21h18.3l-9.11,7.21ZM13.73,16.66l-6.97,5.55v-11.09l6.97,5.55ZM14.36,17.14l2.3,1.82,2.3-1.82,6.89,5.47H7.47l6.89-5.47ZM19.59,16.66l6.97-5.55v11.09l-6.97-5.55Z"/>
        <path class="cls-2" d="M27.54,23.58H5.78v-13.84h21.76v13.84ZM6.15,23.21h21.02v-13.1H6.15v13.1ZM26.38,22.79H6.94l7.42-5.89,2.3,1.82,2.3-1.82,7.42,5.89ZM8,22.42h17.32l-6.36-5.05-2.3,1.82-2.3-1.82-6.36,5.05ZM26.75,22.59l-7.45-5.93,7.45-5.93v11.86ZM19.89,16.66l6.49,5.16v-10.33l-6.49,5.16ZM6.57,22.59v-11.86l7.45,5.93-7.45,5.93ZM6.94,11.5v10.33l6.49-5.16-6.49-5.16ZM16.66,18.16l-.11-.09-9.61-7.54h19.37l-9.64,7.63ZM8.01,10.9l8.65,6.79,8.58-6.79H8.01Z"/>
      </g>
    </g>
  </g>
</svg>